<?xml version="1.0" standalone="no"?>
<!DOCTYPE svg PUBLIC "-//W3C//DTD SVG 20010904//EN"
 "http://www.w3.org/TR/2001/REC-SVG-20010904/DTD/svg10.dtd">
<svg version="1.0" xmlns="http://www.w3.org/2000/svg"
 width="1024.000000pt" height="1024.000000pt" viewBox="0 0 1024.000000 1024.000000"
 preserveAspectRatio="xMidYMid meet">
<metadata>
Created by potrace 1.14, written by Peter Selinger 2001-2017
</metadata>
<g transform="translate(0.000000,1024.000000) scale(0.100000,-0.100000)"
fill="#000000" stroke="none">
<path d="M3048 10221 c-119 -38 -216 -122 -266 -229 l-27 -57 0 -3895 0 -3895
32 -67 c41 -88 113 -160 201 -201 63 -30 74 -32 177 -32 103 0 114 2 177 32
88 41 160 113 201 201 l32 67 5 1425 5 1425 135 -5 c294 -11 761 -4 930 14
540 57 992 197 1460 450 188 102 395 230 825 513 408 267 598 385 849 525 639
357 1397 648 2174 833 39 9 72 21 72 25 0 10 -249 209 -395 315 -604 440
-1234 724 -1970 888 -309 69 -590 111 -1260 187 -970 110 -1379 201 -1874 416
-289 126 -636 344 -877 552 l-71 61 -5 83 c-5 104 -36 176 -107 251 -113 119
-276 165 -423 118z"/>
<path d="M4406 3768 c-4 -18 -47 -453 -69 -697 -2 -23 3 -25 88 -42 379 -72
736 -308 914 -604 117 -195 160 -413 115 -589 -66 -257 -359 -548 -752 -745
-316 -158 -632 -251 -1052 -308 -194 -26 -775 -26 -970 0 -399 53 -705 141
-1015 292 -430 208 -695 480 -776 795 -8 33 -14 103 -13 175 0 109 3 129 33
215 17 52 46 119 63 150 172 306 516 538 913 615 50 9 91 18 93 20 1 1 -16
163 -38 360 -22 196 -40 361 -40 366 0 33 -323 -42 -518 -120 -93 -37 -274
-131 -362 -188 -529 -343 -839 -906 -817 -1483 16 -419 190 -803 507 -1120
425 -424 1092 -718 1863 -820 711 -94 1485 -11 2094 225 278 109 611 295 798
449 237 194 426 424 535 651 99 206 143 396 143 610 0 232 -43 438 -135 652
-246 575 -824 1022 -1483 1148 -105 20 -114 19 -119 -7z"/>
</g>
</svg>
